HIERARCHY
ROOT Hips
{
	OFFSET -3.958830 18.904000 13.208200
	CHANNELS 6 Xposition Yposition Zposition Zrotation Yrotation Xrotation 
	JOINT LHipJoint
	{
		OFFSET 0.000000 0.000000 0.000000
		CHANNELS 3 Zrotation Yrotation Xrotation
		JOINT LeftUpLeg
		{
			OFFSET 1.800000 -1.400000 0.085000
			CHANNELS 3 Zrotation Yrotation Xrotation
			JOINT LeftLeg
			{
				OFFSET 2.215000 -6.000000 0.000000
				CHANNELS 3 Zrotation Yrotation Xrotation
				JOINT LeftFoot
				{
					OFFSET 2.500000 -6.900000 0.000000
					CHANNELS 3 Zrotation Yrotation Xrotation
					JOINT LeftToeBase
					{
						OFFSET 0.200000 -0.500000 1.950000
						CHANNELS 3 Zrotation Yrotation Xrotation
						End Site
						{
							OFFSET 0.000000 0.000000 0.000000
						}
					}
				}
			}
		}
	}
	JOINT RHipJoint
	{
		OFFSET 0.000000 0.000000 0.000000
		CHANNELS 3 Zrotation Yrotation Xrotation
		JOINT RightUpLeg
		{
			OFFSET -1.800000 -1.400000 0.085000
			CHANNELS 3 Zrotation Yrotation Xrotation
			JOINT RightLeg
			{
				OFFSET -2.215000 -6.000000 0.000000
				CHANNELS 3 Zrotation Yrotation Xrotation
				JOINT RightFoot
				{
					OFFSET -2.500000 -6.900000 0.000000
					CHANNELS 3 Zrotation Yrotation Xrotation
					JOINT RightToeBase
					{
						OFFSET -0.200000 -0.500000 1.950000
						CHANNELS 3 Zrotation Yrotation Xrotation
						End Site
						{
							OFFSET 0.000000 0.000000 0.000000
						}
					}
				}
			}
		}
	}
	JOINT LowerBack
	{
		OFFSET 0.000000 0.000000 0.000000
		CHANNELS 3 Zrotation Yrotation Xrotation
		JOINT Spine
		{
			OFFSET -0.087000 1.940000 -0.288900
			CHANNELS 3 Zrotation Yrotation Xrotation
			JOINT Spine1
			{
				OFFSET 0.000000 1.950000 0.060000
				CHANNELS 3 Zrotation Yrotation Xrotation
				JOINT Neck
				{
					OFFSET 0.000000 0.000000 0.000000
					CHANNELS 3 Zrotation Yrotation Xrotation
					JOINT Neck1
					{
						OFFSET 0.000000 1.600000 0.340000
						CHANNELS 3 Zrotation Yrotation Xrotation
						JOINT Head
						{
							OFFSET 0.000000 1.667000 -0.240000
							CHANNELS 3 Zrotation Yrotation Xrotation
							End Site
							{
								OFFSET 0.000000 0.000000 0.000000
							}
						}
					}
				}
				JOINT LeftShoulder
				{
					OFFSET 0.000000 0.000000 0.000000
					CHANNELS 3 Zrotation Yrotation Xrotation
					JOINT LeftArm
					{
						OFFSET 2.700000 1.550000 -0.730000
						CHANNELS 3 Zrotation Yrotation Xrotation
						JOINT LeftForeArm
						{
							OFFSET 5.450000 0.000000 0.000000
							CHANNELS 3 Zrotation Yrotation Xrotation
							JOINT LeftHand
							{
								OFFSET 3.450000 0.000000 0.000000
								CHANNELS 3 Zrotation Yrotation Xrotation
								JOINT LeftHandIndex1
								{
									OFFSET 0.750000 0.000000 0.000000
									CHANNELS 3 Zrotation Yrotation Xrotation
									End Site
									{
										OFFSET 0.000000 0.000000 0.000000
									}
								}
							}
						}
					}
				}
				JOINT RightShoulder
				{
					OFFSET 0.000000 0.000000 0.000000
					CHANNELS 3 Zrotation Yrotation Xrotation
					JOINT RightArm
					{
						OFFSET -2.700000 1.550000 -0.730000
						CHANNELS 3 Zrotation Yrotation Xrotation
						JOINT RightForeArm
						{
							OFFSET -5.450000 0.000000 0.000000
							CHANNELS 3 Zrotation Yrotation Xrotation
							JOINT RightHand
							{
								OFFSET -3.450000 0.000000 0.000000
								CHANNELS 3 Zrotation Yrotation Xrotation
								JOINT RightHandIndex1
								{
									OFFSET -0.750000 0.000000 0.000000
									CHANNELS 3 Zrotation Yrotation Xrotation
									End Site
									{
										OFFSET 0.000000 0.000000 0.000000
									}
								}
							}
						}
					}
				}
			}
		}
	}
}
MOTION
Frames: 11
Frame Time: 0.016667
2.115040 17.551830 -2.216800 -4.061493 -19.782597 8.499171 -14.692220 13.068441 3.913831 -7.791800 -2.828944 -17.439514 -1.770387 2.371438 1.220699 -0.322928 1.966120 4.015037 0.068140 -0.007910 0.014030 18.597048 -11.109829 3.318529 3.706551 -1.211148 -0.068824 5.900907 -5.823373 15.732073 -0.515094 -4.228121 3.050937 -0.076000 0.101070 0.053520 -4.430807 -1.222670 -8.398140 22.757311 4.566655 9.662317 -13.960835 8.908879 -7.191046 4.701548 -4.637767 -17.178874 -12.657776 3.593061 47.699831 -4.171900 1.578870 -0.595730 -16.041971 -10.285346 5.045769 5.793524 11.856412 0.475877 1.776867 -5.554290 -0.091514 -3.772140 2.575987 0.360450 0.018320 0.079980 0.093650 6.364469 19.721636 12.210267 -2.773814 7.040746 -0.221500 -3.075596 -11.579017 0.566937 3.117061 -0.824988 -0.099110 0.129490 -0.021700 -0.048770 
2.158890 17.614450 -2.294370 -4.255377 -20.816058 5.832412 -14.752198 13.315688 3.800650 -6.271005 -2.251396 -15.005659 -1.286046 2.524659 1.717754 -0.307560 2.186985 3.932232 0.110160 0.068940 0.012340 18.489980 -11.113848 3.383121 3.104222 -1.457555 2.067545 5.934579 -5.988587 15.663564 -0.571158 -4.453122 2.945848 -0.007520 0.135460 0.089380 -4.140058 -1.534188 -8.354645 23.787040 1.988981 13.963353 -16.174849 8.366409 -5.416955 5.900974 -6.366362 -18.947083 -14.213068 6.388119 45.838207 -3.529490 3.525140 -2.350760 -11.705004 -8.265933 5.091842 0.069028 11.481621 0.286018 4.973855 -5.735650 -0.112022 -3.913260 2.521866 0.323880 0.053660 0.072730 0.098600 0.079019 21.433318 13.459502 3.024078 10.225810 1.117814 -2.587627 -12.449736 0.624311 3.132510 -0.819898 -0.085090 0.138780 -0.007150 -0.034990 
2.220360 17.696000 -2.355940 -4.263830 -21.234748 5.129256 -14.747124 13.481995 3.653687 -4.851141 -1.981365 -14.464321 -0.220265 2.568161 3.340209 -0.282948 2.216734 3.912718 0.124210 0.112370 0.010080 18.468912 -11.152930 3.409476 2.813918 -1.641800 2.309773 5.384625 -5.770293 14.628624 -0.569713 -4.380448 2.970058 0.005920 0.138090 0.103660 -4.089036 -1.664001 -8.247516 24.164402 1.020891 15.368348 -16.798191 7.957953 -5.076474 6.202771 -6.932789 -19.029966 -15.227389 7.078139 45.284552 -3.876260 3.966730 -3.203250 -11.535807 -7.797188 4.870514 -0.352546 11.065930 0.279899 5.826612 -5.337875 -0.102225 -3.938746 2.523148 0.296210 0.060380 0.087480 0.103400 -0.582551 21.645123 13.606727 2.890368 10.638676 1.358909 -2.736741 -11.038136 0.521077 3.101924 -0.821371 -0.054760 0.143050 -0.010660 -0.013200 
2.277460 17.754420 -2.382720 -3.341059 -21.098473 7.200629 -14.720824 13.547541 3.667783 -3.964155 -2.259506 -16.419499 -1.278761 2.740103 4.614269 -0.303371 2.158321 3.919395 0.124510 0.060380 0.072510 18.474576 -11.154767 3.349970 2.113252 -1.196607 -0.411836 5.709558 -5.514089 13.506873 -0.519184 -3.988993 3.113156 -0.057870 0.067180 0.100410 -4.124466 -1.776376 -8.313230 22.268887 2.625192 13.053647 -14.902085 7.858327 -7.495202 5.649174 -5.553161 -17.904285 -14.388996 5.815591 48.190206 -4.834150 3.608170 -3.629210 -14.675302 -8.963832 4.894784 2.974885 11.499741 0.231911 6.323255 -5.792273 -0.092454 -3.814345 2.533966 0.392450 -0.001800 0.147800 0.089170 3.493414 19.901083 12.607301 -0.667427 8.264547 0.505445 -3.055193 -7.427578 0.440650 3.022135 -0.787700 -0.057540 0.132310 -0.031480 -0.053230 
2.337580 17.784860 -2.454000 -3.428176 -22.394916 6.252298 -14.681718 13.572533 3.427105 -1.925121 -1.787562 -15.079819 -1.183655 3.037142 6.555148 -0.311611 2.351358 3.838266 0.131200 0.089360 0.050840 18.507257 -11.284382 3.389523 1.899343 -1.425471 0.221537 5.293425 -5.378825 12.564800 -0.506272 -4.061324 3.065394 -0.006680 0.088680 0.100660 -4.204497 -1.484290 -8.114368 22.407456 2.247674 13.790552 -14.978934 7.815345 -4.213562 5.777257 -6.348304 -17.890048 -15.024635 6.539773 44.855266 -4.345150 4.176540 -4.023150 -13.159202 -8.694247 4.912738 0.988028 9.194071 0.128052 7.814953 -4.054526 -0.139728 -3.900578 2.559010 0.348100 0.027470 0.108570 0.083170 1.820164 20.150603 12.885184 0.252758 8.751784 0.776695 -3.943262 -7.053175 0.407689 3.003702 -0.856892 -0.068530 0.121370 -0.018710 -0.050370 
2.385510 17.789850 -2.490980 -2.200715 -22.029156 7.948980 -14.621499 13.389942 3.282965 -0.746664 -1.941124 -16.713633 -2.667177 3.578140 9.244808 -0.299793 2.474672 3.806776 0.139140 0.064690 0.058600 18.601452 -11.380677 3.282906 0.525134 -0.848916 -2.447300 6.920810 -5.491288 12.021768 -0.454476 -3.947793 3.124534 -0.028240 0.097300 0.114510 -4.470865 -1.026769 -7.902406 20.244104 3.616690 10.132266 -13.186502 7.421739 -2.676603 4.690545 -5.661810 -15.822978 -14.158064 4.677005 41.995813 -5.005930 3.458500 -3.681570 -16.223501 -10.389692 4.911024 6.053065 7.717307 0.216042 6.193996 -1.449657 -0.225529 -3.855680 2.635674 0.351590 0.036330 0.098130 0.118030 6.756887 18.818236 11.501344 -6.227943 5.993267 0.039898 -1.620069 -3.519549 0.071375 2.888340 -0.922072 -0.070810 0.098350 -0.052700 -0.050790 
2.432060 17.807030 -2.530540 -1.561652 -21.906045 8.585232 -14.629206 13.506187 3.143289 0.804738 -1.809755 -17.190659 -2.639436 4.058779 12.298343 -0.259072 2.708664 3.725395 0.133120 0.051880 0.054610 18.580648 -11.389615 3.263137 -0.148212 -0.581323 -3.737429 7.363252 -5.416207 11.543763 -0.420757 -3.841870 3.167071 -0.041880 0.117300 0.127470 -4.416508 -1.125961 -7.812216 18.597611 3.655838 9.029093 -11.974924 6.828367 -2.823685 4.253864 -5.580759 -15.265909 -14.093379 4.478879 40.941065 -5.098310 3.558840 -3.316650 -17.121156 -11.157158 4.938578 8.458700 6.584495 0.272027 4.448589 1.750656 -0.383065 -3.883806 2.627589 0.343290 0.049790 0.096280 0.134500 8.621800 18.773563 11.065310 -8.065540 5.454873 -0.409875 -2.747418 -2.783210 0.064142 2.877090 -0.964718 -0.068190 0.095440 -0.063050 -0.040120 
2.464380 17.822780 -2.570470 -0.890114 -22.659347 8.800550 -14.660490 13.704581 3.045524 1.642892 -1.656180 -17.132361 -1.285182 4.209027 15.057619 -0.239525 2.868019 3.644196 0.128390 0.039950 0.078290 18.514795 -11.415599 3.263710 -0.729847 -0.373086 -4.699278 7.381248 -5.350867 11.556990 -0.406733 -3.707851 3.202859 -0.063690 0.085690 0.127200 -4.225864 -1.317236 -7.817080 16.218707 3.792955 8.688624 -10.684944 6.472519 -3.570311 4.098429 -5.111084 -15.282029 -13.545823 4.874864 42.058208 -4.969060 4.284120 -4.189570 -17.274251 -11.829515 5.141479 9.761199 5.396129 0.137927 4.152733 5.302764 -0.511880 -3.920794 2.567082 0.381380 0.022280 0.128580 0.115620 9.300209 18.835583 10.838665 -8.329574 5.829488 -0.665232 -3.398578 -3.443675 0.152186 2.904788 -0.934936 -0.065940 0.092530 -0.061440 -0.056740 
2.509160 17.827700 -2.596890 -1.037178 -22.899061 9.577243 -14.661867 13.831725 2.908129 2.994047 -1.481281 -17.305842 -0.028979 4.238786 16.958970 -0.198052 3.006564 3.594571 0.109390 0.016090 0.061000 18.506624 -11.394968 3.270815 -0.773533 -0.107007 -5.877316 7.946608 -5.367558 11.593246 -0.373976 -3.633103 3.243708 -0.089180 0.096700 0.126260 -4.203745 -1.454823 -7.736922 16.022003 3.681419 7.609477 -10.139175 6.069562 -3.615668 4.071357 -5.135701 -15.386962 -13.720717 4.938311 41.641975 -5.137390 4.570080 -2.978960 -17.205370 -12.356629 5.337051 10.232937 4.405204 -0.000018 3.596997 7.726932 -0.584695 -3.952529 2.559166 0.370450 0.031800 0.120160 0.126400 9.437662 19.078654 10.941082 -8.604155 5.548786 -0.840552 -3.678233 -4.844699 0.181698 2.950197 -0.939703 -0.062740 0.080270 -0.067680 -0.048360 
2.548010 17.819200 -2.636010 -0.835380 -22.361871 10.228469 -14.696390 13.948738 2.825997 4.167032 -1.421284 -17.678541 0.725946 4.285873 18.281208 -0.129222 3.141495 3.536900 0.060390 -0.041090 0.015220 18.475190 -11.339625 3.230206 -0.697072 0.152882 -7.057000 7.935047 -5.389218 12.319334 -0.328974 -3.573333 3.268474 -0.145870 0.121220 0.157710 -4.113410 -1.698248 -7.660192 15.209648 3.129582 6.594822 -9.626387 5.185808 -3.431990 4.125755 -5.150067 -15.601585 -13.752275 5.055918 40.437691 -5.410710 5.087530 -1.010460 -16.841737 -12.948298 5.540826 10.787104 2.943018 -0.239106 3.177076 11.020475 -0.655142 -4.038574 2.580931 0.329820 0.060450 0.101260 0.123360 9.212878 19.212557 11.279639 -8.674561 4.170946 -0.799901 -3.574398 -3.541093 0.181162 2.940897 -0.958732 -0.033220 0.033890 -0.045790 -0.027700 
2.572070 17.810710 -2.672800 -0.320774 -21.877479 9.959000 -14.744038 14.112341 2.748692 5.283001 -1.192823 -16.690086 1.290398 4.288457 18.518509 -0.110854 3.259137 3.503146 0.031170 -0.062370 -0.014540 18.413812 -11.318830 3.186283 -0.943356 0.329636 -7.622709 7.792761 -5.488641 13.519270 -0.304363 -3.583100 3.266509 -0.153520 0.151170 0.155390 -3.941319 -1.959386 -7.619678 13.773228 2.351789 6.527091 -8.792599 4.203378 -3.132754 4.154284 -5.518984 -15.770477 -14.377827 5.804596 39.543641 -5.362640 5.752570 -0.660490 -16.425507 -13.020387 5.755944 10.111264 2.868585 -0.271819 4.114820 10.913732 -0.515083 -4.069982 2.579137 0.313910 0.080560 0.083800 0.121220 8.986876 19.401362 11.336346 -8.747584 4.172813 -0.769290 -3.135657 -3.683196 0.156978 2.942367 -0.949821 -0.043740 0.044590 -0.026220 -0.019700 
